<svg xmlns="http://www.w3.org/2000/svg" width="720" height="1280" viewBox="0 0 720 1280"><defs>
<linearGradient id="bg" x2="1" y2="1"><stop stop-color="#091115"/><stop offset=".55" stop-color="#112933"/><stop offset="1" stop-color="#080f16"/></linearGradient>
<linearGradient id="panel" x2="1" y2="1"><stop stop-color="#213d49"/><stop offset="1" stop-color="#0c1720"/></linearGradient>
<linearGradient id="edge"><stop stop-color="#51bcca"/><stop offset=".6" stop-color="#385363"/><stop offset="1" stop-color="#f4795f"/></linearGradient>
<linearGradient id="mint" x2="0" y2="1"><stop stop-color="#79e4bc" stop-opacity=".5"/><stop offset="1" stop-color="#79e4bc" stop-opacity="0"/></linearGradient>
<radialGradient id="glow"><stop stop-color="#32a6bb" stop-opacity=".48"/><stop offset="1" stop-color="#32a6bb" stop-opacity="0"/></radialGradient>
<radialGradient id="warm"><stop stop-color="#e5402a" stop-opacity=".25"/><stop offset="1" stop-color="#e5402a" stop-opacity="0"/></radialGradient>
<filter id="shadow" x="-.5" y="-.5" width="2" height="2"><feDropShadow dx="0" dy="24" stdDeviation="22" flood-color="#000" flood-opacity=".5"/></filter>
<pattern id="grid" width="60" height="60" patternUnits="userSpaceOnUse"><path d="M60 0H0V60" fill="none" stroke="#77cad4" stroke-opacity=".06"/></pattern>
</defs><rect width="720" height="1280" fill="url(#bg)"/><rect width="720" height="1280" fill="url(#grid)"/><ellipse cx="520" cy="380" rx="490" ry="520" fill="url(#glow)"/><ellipse cx="100" cy="1000" rx="450" ry="430" fill="url(#warm)"/><g filter="url(#shadow)"><rect x="58" y="265" width="604" height="655" rx="26" fill="url(#panel)" stroke="url(#edge)" stroke-width="2"/><path d="M59 323H661" stroke="#8cb8c4" stroke-opacity=".18"/><circle cx="85" cy="294" r="5" fill="#ed7d68"/><circle cx="105" cy="294" r="5" fill="#8dcdb8"/><circle cx="125" cy="294" r="5" fill="#6098ae"/><rect x="91" y="360" width="255" height="8" rx="4" fill="#e7ede7" opacity=".7"/><rect x="91" y="387" width="360" height="8" rx="4" fill="#678692" opacity=".7"/><rect x="91" y="438" width="538" height="255" rx="15" fill="#365565" stroke="#a5deeb" stroke-opacity=".12"/><path d="M122 650L185 591L250 612L320 525L390 572L460 513L515 545L598 494V674H122Z" fill="url(#mint)"/><path d="M122 650L185 591L250 612L320 525L390 572L460 513L515 545L598 494" fill="none" stroke="#79e4bc" stroke-width="7" stroke-linejoin="round" stroke-linecap="round"/><rect x="91" y="727" width="159" height="134" rx="15" fill="#365565" stroke="#a5deeb" stroke-opacity=".12"/><rect x="280" y="727" width="159" height="134" rx="15" fill="#365565" stroke="#a5deeb" stroke-opacity=".12"/><rect x="469" y="727" width="159" height="134" rx="15" fill="#365565" stroke="#a5deeb" stroke-opacity=".12"/><rect x="110" y="758" width="72" height="8" rx="4" fill="#f4795f" opacity=".7"/><rect x="301" y="758" width="72" height="8" rx="4" fill="#9abfcc" opacity=".7"/><rect x="490" y="758" width="72" height="8" rx="4" fill="#79e4bc" opacity=".7"/></g><circle cx="610" cy="1010" r="57" fill="#7de1ba" opacity=".07"/></svg>
